<svg xmlns="http://www.w3.org/2000/svg">
<symbol id="cactus_left" viewBox="0 0 140 180"><g fill="#555">
<rect x="72" y="21" width="26" height="1"/><rect x="72" y="22" width="26" height="1"/><rect x="71" y="23" width="27" height="1"/><rect x="71" y="24" width="27" height="1"/><rect x="71" y="25" width="27" height="1"/><rect x="71" y="26" width="27" height="1"/><rect x="71" y="27" width="27" height="1"/><rect x="65" y="28" width="37" height="1"/><rect x="65" y="29" width="37" height="1"/><rect x="65" y="30" width="37" height="1"/><rect x="65" y="31" width="37" height="1"/><rect x="65" y="32" width="37" height="1"/><rect x="65" y="33" width="37" height="1"/><rect x="65" y="34" width="37" height="1"/><rect x="65" y="35" width="37" height="1"/><rect x="65" y="36" width="37" height="1"/><rect x="65" y="37" width="37" height="1"/><rect x="65" y="38" width="37" height="1"/><rect x="65" y="39" width="37" height="1"/><rect x="65" y="40" width="37" height="1"/><rect x="65" y="41" width="37" height="1"/><rect x="65" y="42" width="37" height="1"/><rect x="65" y="43" width="37" height="1"/><rect x="65" y="44" width="37" height="1"/><rect x="65" y="45" width="37" height="1"/><rect x="65" y="46" width="37" height="1"/><rect x="65" y="47" width="37" height="1"/><rect x="65" y="48" width="37" height="1"/><rect x="65" y="49" width="37" height="1"/><rect x="65" y="50" width="37" height="1"/><rect x="65" y="51" width="37" height="1"/><rect x="65" y="52" width="37" height="1"/><rect x="65" y="53" width="37" height="1"/><rect x="65" y="54" width="37" height="1"/><rect x="65" y="55" width="37" height="1"/><rect x="65" y="56" width="37" height="1"/><rect x="65" y="57" width="37" height="1"/><rect x="121" y="57" width="12" height="1"/><rect x="65" y="58" width="37" height="1"/><rect x="121" y="58" width="12" height="1"/><rect x="65" y="59" width="37" height="1"/><rect x="121" y="59" width="12" height="1"/><rect x="65" y="60" width="37" height="1"/><rect x="121" y="60" width="12" height="1"/><rect x="65" y="61" width="37" height="1"/><rect x="121" y="61" width="12" height="1"/><rect x="35" y="62" width="9" height="1"/><rect x="65" y="62" width="37" height="1"/><rect x="121" y="62" width="12" height="1"/><rect x="35" y="63" width="9" height="1"/><rect x="65" y="63" width="37" height="1"/><rect x="121" y="63" width="12" height="1"/><rect x="35" y="64" width="9" height="1"/><rect x="65" y="64" width="37" height="1"/><rect x="121" y="64" width="17" height="1"/><rect x="35" y="65" width="9" height="1"/><rect x="65" y="65" width="37" height="1"/><rect x="115" y="65" width="23" height="1"/><rect x="28" y="66" width="16" height="1"/><rect x="65" y="66" width="37" height="1"/><rect x="115" y="66" width="23" height="1"/><rect x="28" y="67" width="16" height="1"/><rect x="65" y="67" width="37" height="1"/><rect x="115" y="67" width="23" height="1"/><rect x="29" y="68" width="15" height="1"/><rect x="65" y="68" width="37" height="1"/><rect x="115" y="68" width="23" height="1"/><rect x="28" y="69" width="16" height="1"/><rect x="65" y="69" width="37" height="1"/><rect x="115" y="69" width="23" height="1"/><rect x="29" y="70" width="15" height="1"/><rect x="65" y="70" width="37" height="1"/><rect x="115" y="70" width="23" height="1"/><rect x="28" y="71" width="23" height="1"/><rect x="65" y="71" width="37" height="1"/><rect x="115" y="71" width="23" height="1"/><rect x="28" y="72" width="23" height="1"/><rect x="65" y="72" width="37" height="1"/><rect x="115" y="72" width="23" height="1"/><rect x="28" y="73" width="23" height="1"/><rect x="65" y="73" width="37" height="1"/><rect x="115" y="73" width="23" height="1"/><rect x="28" y="74" width="23" height="1"/><rect x="65" y="74" width="37" height="1"/><rect x="115" y="74" width="23" height="1"/><rect x="28" y="75" width="23" height="1"/><rect x="65" y="75" width="37" height="1"/><rect x="115" y="75" width="23" height="1"/><rect x="28" y="76" width="23" height="1"/><rect x="65" y="76" width="37" height="1"/><rect x="115" y="76" width="23" height="1"/><rect x="28" y="77" width="23" height="1"/><rect x="65" y="77" width="37" height="1"/><rect x="115" y="77" width="23" height="1"/><rect x="28" y="78" width="23" height="1"/><rect x="65" y="78" width="37" height="1"/><rect x="115" y="78" width="23" height="1"/><rect x="28" y="79" width="23" height="1"/><rect x="65" y="79" width="37" height="1"/><rect x="115" y="79" width="23" height="1"/><rect x="28" y="80" width="23" height="1"/><rect x="65" y="80" width="37" height="1"/><rect x="115" y="80" width="23" height="1"/><rect x="28" y="81" width="23" height="1"/><rect x="65" y="81" width="37" height="1"/><rect x="115" y="81" width="23" height="1"/><rect x="28" y="82" width="23" height="1"/><rect x="65" y="82" width="37" height="1"/><rect x="115" y="82" width="23" height="1"/><rect x="28" y="83" width="23" height="1"/><rect x="65" y="83" width="37" height="1"/><rect x="115" y="83" width="23" height="1"/><rect x="28" y="84" width="23" height="1"/><rect x="65" y="84" width="37" height="1"/><rect x="115" y="84" width="23" height="1"/><rect x="28" y="85" width="23" height="1"/><rect x="65" y="85" width="37" height="1"/><rect x="115" y="85" width="23" height="1"/><rect x="28" y="86" width="23" height="1"/><rect x="65" y="86" width="37" height="1"/><rect x="115" y="86" width="23" height="1"/><rect x="28" y="87" width="23" height="1"/><rect x="65" y="87" width="37" height="1"/><rect x="115" y="87" width="23" height="1"/><rect x="28" y="88" width="23" height="1"/><rect x="65" y="88" width="37" height="1"/><rect x="115" y="88" width="23" height="1"/><rect x="28" y="89" width="23" height="1"/><rect x="65" y="89" width="37" height="1"/><rect x="115" y="89" width="23" height="1"/><rect x="28" y="90" width="23" height="1"/><rect x="65" y="90" width="37" height="1"/><rect x="115" y="90" width="23" height="1"/><rect x="28" y="91" width="23" height="1"/><rect x="65" y="91" width="37" height="1"/><rect x="115" y="91" width="23" height="1"/><rect x="28" y="92" width="23" height="1"/><rect x="65" y="92" width="37" height="1"/><rect x="115" y="92" width="23" height="1"/><rect x="28" y="93" width="23" height="1"/><rect x="65" y="93" width="37" height="1"/><rect x="115" y="93" width="23" height="1"/><rect x="28" y="94" width="23" height="1"/><rect x="65" y="94" width="37" height="1"/><rect x="115" y="94" width="23" height="1"/><rect x="28" y="95" width="23" height="1"/><rect x="65" y="95" width="37" height="1"/><rect x="115" y="95" width="23" height="1"/><rect x="28" y="96" width="23" height="1"/><rect x="65" y="96" width="37" height="1"/><rect x="115" y="96" width="23" height="1"/><rect x="28" y="97" width="23" height="1"/><rect x="65" y="97" width="37" height="1"/><rect x="115" y="97" width="23" height="1"/><rect x="28" y="98" width="23" height="1"/><rect x="65" y="98" width="37" height="1"/><rect x="115" y="98" width="23" height="1"/><rect x="28" y="99" width="23" height="1"/><rect x="65" y="99" width="37" height="1"/><rect x="115" y="99" width="23" height="1"/><rect x="28" y="100" width="23" height="1"/><rect x="65" y="100" width="37" height="1"/><rect x="115" y="100" width="23" height="1"/><rect x="28" y="101" width="23" height="1"/><rect x="65" y="101" width="37" height="1"/><rect x="115" y="101" width="23" height="1"/><rect x="28" y="102" width="23" height="1"/><rect x="65" y="102" width="37" height="1"/><rect x="115" y="102" width="23" height="1"/><rect x="28" y="103" width="23" height="1"/><rect x="65" y="103" width="37" height="1"/><rect x="115" y="103" width="23" height="1"/><rect x="28" y="104" width="23" height="1"/><rect x="65" y="104" width="37" height="1"/><rect x="115" y="104" width="23" height="1"/><rect x="28" y="105" width="23" height="1"/><rect x="65" y="105" width="37" height="1"/><rect x="115" y="105" width="23" height="1"/><rect x="28" y="106" width="23" height="1"/><rect x="65" y="106" width="37" height="1"/><rect x="115" y="106" width="23" height="1"/><rect x="28" y="107" width="23" height="1"/><rect x="65" y="107" width="37" height="1"/><rect x="115" y="107" width="23" height="1"/><rect x="28" y="108" width="23" height="1"/><rect x="65" y="108" width="37" height="1"/><rect x="115" y="108" width="23" height="1"/><rect x="28" y="109" width="23" height="1"/><rect x="65" y="109" width="37" height="1"/><rect x="115" y="109" width="23" height="1"/><rect x="28" y="110" width="23" height="1"/><rect x="65" y="110" width="37" height="1"/><rect x="115" y="110" width="23" height="1"/><rect x="28" y="111" width="23" height="1"/><rect x="65" y="111" width="37" height="1"/><rect x="115" y="111" width="23" height="1"/><rect x="28" y="112" width="23" height="1"/><rect x="65" y="112" width="37" height="1"/><rect x="115" y="112" width="23" height="1"/><rect x="28" y="113" width="23" height="1"/><rect x="65" y="113" width="37" height="1"/><rect x="110" y="113" width="28" height="1"/><rect x="28" y="114" width="23" height="1"/><rect x="65" y="114" width="37" height="1"/><rect x="109" y="114" width="29" height="1"/><rect x="28" y="115" width="23" height="1"/><rect x="65" y="115" width="37" height="1"/><rect x="109" y="115" width="29" height="1"/><rect x="28" y="116" width="23" height="1"/><rect x="65" y="116" width="37" height="1"/><rect x="109" y="116" width="29" height="1"/><rect x="28" y="117" width="23" height="1"/><rect x="65" y="117" width="37" height="1"/><rect x="109" y="117" width="29" height="1"/><rect x="28" y="118" width="23" height="1"/><rect x="65" y="118" width="37" height="1"/><rect x="109" y="118" width="29" height="1"/><rect x="28" y="119" width="23" height="1"/><rect x="65" y="119" width="37" height="1"/><rect x="109" y="119" width="29" height="1"/><rect x="28" y="120" width="23" height="1"/><rect x="65" y="120" width="37" height="1"/><rect x="109" y="120" width="29" height="1"/><rect x="28" y="121" width="23" height="1"/><rect x="65" y="121" width="73" height="1"/><rect x="28" y="122" width="103" height="1"/><rect x="28" y="123" width="103" height="1"/><rect x="28" y="124" width="103" height="1"/><rect x="28" y="125" width="103" height="1"/><rect x="28" y="126" width="103" height="1"/><rect x="28" y="127" width="103" height="1"/><rect x="28" y="128" width="103" height="1"/><rect x="28" y="129" width="103" height="1"/><rect x="28" y="130" width="5" height="1"/><rect x="34" y="130" width="97" height="1"/><rect x="35" y="131" width="89" height="1"/><rect x="35" y="132" width="89" height="1"/><rect x="35" y="133" width="89" height="1"/><rect x="35" y="134" width="89" height="1"/><rect x="35" y="135" width="89" height="1"/><rect x="35" y="136" width="89" height="1"/><rect x="35" y="137" width="89" height="1"/><rect x="36" y="138" width="1" height="1"/><rect x="38" y="138" width="2" height="1"/><rect x="42" y="138" width="61" height="1"/><rect x="122" y="138" width="1" height="1"/><rect x="43" y="139" width="59" height="1"/><rect x="42" y="140" width="60" height="1"/><rect x="43" y="141" width="59" height="1"/><rect x="43" y="142" width="59" height="1"/><rect x="43" y="143" width="59" height="1"/><rect x="43" y="144" width="59" height="1"/><rect x="43" y="145" width="59" height="1"/><rect x="65" y="146" width="37" height="1"/><rect x="65" y="147" width="37" height="1"/><rect x="65" y="148" width="37" height="1"/><rect x="65" y="149" width="37" height="1"/><rect x="65" y="150" width="37" height="1"/><rect x="65" y="151" width="37" height="1"/><rect x="65" y="152" width="37" height="1"/><rect x="65" y="153" width="37" height="1"/><rect x="65" y="154" width="37" height="1"/><rect x="65" y="155" width="37" height="1"/><rect x="65" y="156" width="37" height="1"/><rect x="65" y="157" width="37" height="1"/><rect x="65" y="158" width="37" height="1"/><rect x="65" y="159" width="37" height="1"/><rect x="65" y="160" width="37" height="1"/><rect x="65" y="161" width="37" height="1"/><rect x="65" y="162" width="37" height="1"/><rect x="65" y="163" width="37" height="1"/><rect x="65" y="164" width="37" height="1"/><rect x="65" y="165" width="37" height="1"/><rect x="65" y="166" width="37" height="1"/><rect x="65" y="167" width="37" height="1"/><rect x="65" y="168" width="37" height="1"/><rect x="65" y="169" width="37" height="1"/><rect x="65" y="170" width="37" height="1"/><rect x="65" y="171" width="37" height="1"/><rect x="65" y="172" width="37" height="1"/><rect x="65" y="173" width="37" height="1"/><rect x="65" y="174" width="37" height="1"/><rect x="65" y="175" width="37" height="1"/><rect x="65" y="176" width="37" height="1"/><rect x="65" y="177" width="37" height="1"/><rect x="65" y="178" width="37" height="1"/><rect x="65" y="179" width="37" height="1"/>
</g></symbol>
<symbol id="cactus_right" viewBox="0 0 150 180"><g fill="#555">
<rect x="98" y="24" width="20" height="1"/><rect x="97" y="25" width="22" height="1"/><rect x="97" y="26" width="22" height="1"/><rect x="97" y="27" width="22" height="1"/><rect x="97" y="28" width="22" height="1"/><rect x="97" y="29" width="22" height="1"/><rect x="97" y="30" width="22" height="1"/><rect x="91" y="31" width="34" height="1"/><rect x="90" y="32" width="36" height="1"/><rect x="91" y="33" width="35" height="1"/><rect x="91" y="34" width="35" height="1"/><rect x="91" y="35" width="35" height="1"/><rect x="91" y="36" width="35" height="1"/><rect x="91" y="37" width="35" height="1"/><rect x="91" y="38" width="35" height="1"/><rect x="91" y="39" width="35" height="1"/><rect x="90" y="40" width="36" height="1"/><rect x="90" y="41" width="36" height="1"/><rect x="90" y="42" width="36" height="1"/><rect x="90" y="43" width="36" height="1"/><rect x="90" y="44" width="36" height="1"/><rect x="90" y="45" width="36" height="1"/><rect x="90" y="46" width="36" height="1"/><rect x="90" y="47" width="36" height="1"/><rect x="90" y="48" width="36" height="1"/><rect x="90" y="49" width="36" height="1"/><rect x="90" y="50" width="36" height="1"/><rect x="90" y="51" width="36" height="1"/><rect x="90" y="52" width="36" height="1"/><rect x="90" y="53" width="36" height="1"/><rect x="90" y="54" width="36" height="1"/><rect x="90" y="55" width="36" height="1"/><rect x="91" y="56" width="35" height="1"/><rect x="91" y="57" width="35" height="1"/><rect x="91" y="58" width="35" height="1"/><rect x="145" y="58" width="5" height="1"/><rect x="91" y="59" width="35" height="1"/><rect x="145" y="59" width="5" height="1"/><rect x="91" y="60" width="35" height="1"/><rect x="145" y="60" width="5" height="1"/><rect x="62" y="61" width="8" height="1"/><rect x="90" y="61" width="36" height="1"/><rect x="145" y="61" width="5" height="1"/><rect x="62" y="62" width="8" height="1"/><rect x="90" y="62" width="36" height="1"/><rect x="145" y="62" width="5" height="1"/><rect x="62" y="63" width="8" height="1"/><rect x="90" y="63" width="36" height="1"/><rect x="145" y="63" width="5" height="1"/><rect x="62" y="64" width="8" height="1"/><rect x="90" y="64" width="36" height="1"/><rect x="145" y="64" width="5" height="1"/><rect x="62" y="65" width="8" height="1"/><rect x="90" y="65" width="36" height="1"/><rect x="139" y="65" width="11" height="1"/><rect x="55" y="66" width="15" height="1"/><rect x="90" y="66" width="36" height="1"/><rect x="139" y="66" width="11" height="1"/><rect x="55" y="67" width="15" height="1"/><rect x="90" y="67" width="36" height="1"/><rect x="139" y="67" width="11" height="1"/><rect x="55" y="68" width="15" height="1"/><rect x="90" y="68" width="36" height="1"/><rect x="139" y="68" width="11" height="1"/><rect x="55" y="69" width="15" height="1"/><rect x="90" y="69" width="36" height="1"/><rect x="139" y="69" width="11" height="1"/><rect x="55" y="70" width="15" height="1"/><rect x="90" y="70" width="36" height="1"/><rect x="139" y="70" width="11" height="1"/><rect x="55" y="71" width="22" height="1"/><rect x="90" y="71" width="36" height="1"/><rect x="139" y="71" width="11" height="1"/><rect x="55" y="72" width="22" height="1"/><rect x="90" y="72" width="36" height="1"/><rect x="139" y="72" width="11" height="1"/><rect x="55" y="73" width="22" height="1"/><rect x="90" y="73" width="36" height="1"/><rect x="139" y="73" width="11" height="1"/><rect x="55" y="74" width="22" height="1"/><rect x="90" y="74" width="36" height="1"/><rect x="139" y="74" width="11" height="1"/><rect x="55" y="75" width="22" height="1"/><rect x="90" y="75" width="36" height="1"/><rect x="139" y="75" width="11" height="1"/><rect x="55" y="76" width="22" height="1"/><rect x="90" y="76" width="36" height="1"/><rect x="139" y="76" width="11" height="1"/><rect x="55" y="77" width="22" height="1"/><rect x="90" y="77" width="36" height="1"/><rect x="139" y="77" width="11" height="1"/><rect x="55" y="78" width="22" height="1"/><rect x="90" y="78" width="36" height="1"/><rect x="139" y="78" width="11" height="1"/><rect x="55" y="79" width="22" height="1"/><rect x="90" y="79" width="36" height="1"/><rect x="139" y="79" width="11" height="1"/><rect x="55" y="80" width="22" height="1"/><rect x="90" y="80" width="36" height="1"/><rect x="139" y="80" width="11" height="1"/><rect x="55" y="81" width="22" height="1"/><rect x="90" y="81" width="36" height="1"/><rect x="139" y="81" width="11" height="1"/><rect x="55" y="82" width="22" height="1"/><rect x="90" y="82" width="36" height="1"/><rect x="139" y="82" width="11" height="1"/><rect x="55" y="83" width="22" height="1"/><rect x="90" y="83" width="36" height="1"/><rect x="139" y="83" width="11" height="1"/><rect x="55" y="84" width="22" height="1"/><rect x="90" y="84" width="36" height="1"/><rect x="139" y="84" width="11" height="1"/><rect x="55" y="85" width="22" height="1"/><rect x="90" y="85" width="36" height="1"/><rect x="139" y="85" width="11" height="1"/><rect x="55" y="86" width="22" height="1"/><rect x="90" y="86" width="36" height="1"/><rect x="139" y="86" width="11" height="1"/><rect x="55" y="87" width="22" height="1"/><rect x="90" y="87" width="36" height="1"/><rect x="139" y="87" width="11" height="1"/><rect x="55" y="88" width="22" height="1"/><rect x="90" y="88" width="36" height="1"/><rect x="139" y="88" width="11" height="1"/><rect x="55" y="89" width="22" height="1"/><rect x="90" y="89" width="36" height="1"/><rect x="139" y="89" width="11" height="1"/><rect x="55" y="90" width="22" height="1"/><rect x="90" y="90" width="36" height="1"/><rect x="139" y="90" width="11" height="1"/><rect x="55" y="91" width="22" height="1"/><rect x="90" y="91" width="36" height="1"/><rect x="139" y="91" width="11" height="1"/><rect x="55" y="92" width="22" height="1"/><rect x="90" y="92" width="36" height="1"/><rect x="139" y="92" width="11" height="1"/><rect x="55" y="93" width="22" height="1"/><rect x="90" y="93" width="36" height="1"/><rect x="139" y="93" width="11" height="1"/><rect x="55" y="94" width="22" height="1"/><rect x="90" y="94" width="36" height="1"/><rect x="139" y="94" width="11" height="1"/><rect x="55" y="95" width="22" height="1"/><rect x="90" y="95" width="36" height="1"/><rect x="139" y="95" width="11" height="1"/><rect x="55" y="96" width="22" height="1"/><rect x="90" y="96" width="36" height="1"/><rect x="139" y="96" width="11" height="1"/><rect x="55" y="97" width="22" height="1"/><rect x="90" y="97" width="36" height="1"/><rect x="139" y="97" width="11" height="1"/><rect x="55" y="98" width="22" height="1"/><rect x="90" y="98" width="36" height="1"/><rect x="139" y="98" width="11" height="1"/><rect x="55" y="99" width="22" height="1"/><rect x="90" y="99" width="36" height="1"/><rect x="139" y="99" width="11" height="1"/><rect x="55" y="100" width="22" height="1"/><rect x="90" y="100" width="36" height="1"/><rect x="139" y="100" width="11" height="1"/><rect x="55" y="101" width="22" height="1"/><rect x="90" y="101" width="36" height="1"/><rect x="139" y="101" width="11" height="1"/><rect x="55" y="102" width="22" height="1"/><rect x="90" y="102" width="36" height="1"/><rect x="139" y="102" width="11" height="1"/><rect x="55" y="103" width="22" height="1"/><rect x="90" y="103" width="36" height="1"/><rect x="139" y="103" width="11" height="1"/><rect x="55" y="104" width="22" height="1"/><rect x="90" y="104" width="36" height="1"/><rect x="139" y="104" width="11" height="1"/><rect x="55" y="105" width="22" height="1"/><rect x="90" y="105" width="36" height="1"/><rect x="139" y="105" width="11" height="1"/><rect x="55" y="106" width="22" height="1"/><rect x="90" y="106" width="36" height="1"/><rect x="139" y="106" width="11" height="1"/><rect x="55" y="107" width="22" height="1"/><rect x="91" y="107" width="35" height="1"/><rect x="139" y="107" width="11" height="1"/><rect x="55" y="108" width="22" height="1"/><rect x="90" y="108" width="36" height="1"/><rect x="139" y="108" width="11" height="1"/><rect x="55" y="109" width="22" height="1"/><rect x="90" y="109" width="36" height="1"/><rect x="139" y="109" width="11" height="1"/><rect x="55" y="110" width="22" height="1"/><rect x="90" y="110" width="36" height="1"/><rect x="139" y="110" width="11" height="1"/><rect x="55" y="111" width="22" height="1"/><rect x="90" y="111" width="36" height="1"/><rect x="139" y="111" width="11" height="1"/><rect x="55" y="112" width="22" height="1"/><rect x="90" y="112" width="36" height="1"/><rect x="139" y="112" width="11" height="1"/><rect x="55" y="113" width="28" height="1"/><rect x="90" y="113" width="36" height="1"/><rect x="133" y="113" width="17" height="1"/><rect x="55" y="114" width="29" height="1"/><rect x="90" y="114" width="36" height="1"/><rect x="132" y="114" width="18" height="1"/><rect x="55" y="115" width="29" height="1"/><rect x="90" y="115" width="36" height="1"/><rect x="132" y="115" width="18" height="1"/><rect x="55" y="116" width="29" height="1"/><rect x="90" y="116" width="36" height="1"/><rect x="132" y="116" width="18" height="1"/><rect x="55" y="117" width="29" height="1"/><rect x="90" y="117" width="36" height="1"/><rect x="132" y="117" width="18" height="1"/><rect x="55" y="118" width="29" height="1"/><rect x="90" y="118" width="36" height="1"/><rect x="132" y="118" width="18" height="1"/><rect x="55" y="119" width="29" height="1"/><rect x="90" y="119" width="36" height="1"/><rect x="132" y="119" width="18" height="1"/><rect x="55" y="120" width="71" height="1"/><rect x="132" y="120" width="18" height="1"/><rect x="55" y="121" width="95" height="1"/><rect x="55" y="122" width="95" height="1"/><rect x="55" y="123" width="95" height="1"/><rect x="55" y="124" width="95" height="1"/><rect x="55" y="125" width="95" height="1"/><rect x="55" y="126" width="95" height="1"/><rect x="62" y="127" width="88" height="1"/><rect x="62" y="128" width="88" height="1"/><rect x="62" y="129" width="88" height="1"/><rect x="62" y="130" width="88" height="1"/><rect x="62" y="131" width="84" height="1"/><rect x="62" y="132" width="85" height="1"/><rect x="62" y="133" width="85" height="1"/><rect x="62" y="134" width="84" height="1"/><rect x="62" y="135" width="84" height="1"/><rect x="62" y="136" width="84" height="1"/><rect x="63" y="137" width="5" height="1"/><rect x="69" y="137" width="77" height="1"/><rect x="70" y="138" width="56" height="1"/><rect x="70" y="139" width="56" height="1"/><rect x="70" y="140" width="56" height="1"/><rect x="90" y="141" width="36" height="1"/><rect x="91" y="142" width="35" height="1"/><rect x="91" y="143" width="35" height="1"/><rect x="91" y="144" width="35" height="1"/><rect x="91" y="145" width="35" height="1"/><rect x="90" y="146" width="36" height="1"/><rect x="90" y="147" width="36" height="1"/><rect x="90" y="148" width="36" height="1"/><rect x="90" y="149" width="36" height="1"/><rect x="90" y="150" width="36" height="1"/><rect x="90" y="151" width="36" height="1"/><rect x="90" y="152" width="36" height="1"/><rect x="90" y="153" width="36" height="1"/><rect x="90" y="154" width="36" height="1"/><rect x="90" y="155" width="36" height="1"/><rect x="90" y="156" width="36" height="1"/><rect x="90" y="157" width="36" height="1"/><rect x="90" y="158" width="36" height="1"/><rect x="90" y="159" width="36" height="1"/><rect x="90" y="160" width="36" height="1"/><rect x="90" y="161" width="36" height="1"/><rect x="90" y="162" width="36" height="1"/><rect x="90" y="163" width="36" height="1"/><rect x="91" y="164" width="35" height="1"/><rect x="91" y="165" width="35" height="1"/><rect x="91" y="166" width="35" height="1"/><rect x="91" y="167" width="35" height="1"/><rect x="91" y="168" width="35" height="1"/><rect x="91" y="169" width="35" height="1"/><rect x="91" y="170" width="35" height="1"/><rect x="91" y="171" width="35" height="1"/><rect x="91" y="172" width="35" height="1"/><rect x="91" y="173" width="35" height="1"/><rect x="91" y="174" width="35" height="1"/><rect x="91" y="175" width="35" height="1"/><rect x="90" y="176" width="36" height="1"/><rect x="90" y="177" width="36" height="1"/><rect x="90" y="178" width="36" height="1"/><rect x="90" y="179" width="36" height="1"/>
</g></symbol>
<symbol id="cloud_left" viewBox="0 0 235 95"><g fill="#555">
<rect x="118" y="19" width="35" height="1"/><rect x="116" y="20" width="38" height="1"/><rect x="116" y="21" width="38" height="1"/><rect x="116" y="22" width="38" height="1"/><rect x="112" y="23" width="1" height="1"/><rect x="116" y="23" width="38" height="1"/><rect x="111" y="24" width="43" height="1"/><rect x="111" y="25" width="43" height="1"/><rect x="111" y="26" width="43" height="1"/><rect x="111" y="27" width="43" height="1"/><rect x="97" y="28" width="65" height="1"/><rect x="97" y="29" width="21" height="1"/><rect x="147" y="29" width="16" height="1"/><rect x="97" y="30" width="21" height="1"/><rect x="147" y="30" width="16" height="1"/><rect x="96" y="31" width="22" height="1"/><rect x="147" y="31" width="16" height="1"/><rect x="95" y="32" width="23" height="1"/><rect x="147" y="32" width="16" height="1"/><rect x="95" y="33" width="23" height="1"/><rect x="147" y="33" width="17" height="1"/><rect x="94" y="34" width="24" height="1"/><rect x="147" y="34" width="18" height="1"/><rect x="94" y="35" width="24" height="1"/><rect x="147" y="35" width="18" height="1"/><rect x="93" y="36" width="25" height="1"/><rect x="147" y="36" width="22" height="1"/><rect x="91" y="37" width="26" height="1"/><rect x="147" y="37" width="23" height="1"/><rect x="91" y="38" width="9" height="1"/><rect x="160" y="38" width="10" height="1"/><rect x="91" y="39" width="9" height="1"/><rect x="160" y="39" width="10" height="1"/><rect x="91" y="40" width="9" height="1"/><rect x="160" y="40" width="10" height="1"/><rect x="91" y="41" width="9" height="1"/><rect x="160" y="41" width="10" height="1"/><rect x="91" y="42" width="9" height="1"/><rect x="160" y="42" width="10" height="1"/><rect x="91" y="43" width="9" height="1"/><rect x="160" y="43" width="10" height="1"/><rect x="91" y="44" width="9" height="1"/><rect x="160" y="44" width="10" height="1"/><rect x="91" y="45" width="9" height="1"/><rect x="160" y="45" width="10" height="1"/><rect x="76" y="46" width="24" height="1"/><rect x="160" y="46" width="32" height="1"/><rect x="76" y="47" width="23" height="1"/><rect x="160" y="47" width="33" height="1"/><rect x="76" y="48" width="23" height="1"/><rect x="160" y="48" width="33" height="1"/><rect x="76" y="49" width="23" height="1"/><rect x="161" y="49" width="32" height="1"/><rect x="76" y="50" width="23" height="1"/><rect x="161" y="50" width="32" height="1"/><rect x="76" y="51" width="23" height="1"/><rect x="161" y="51" width="32" height="1"/><rect x="76" y="52" width="23" height="1"/><rect x="161" y="52" width="32" height="1"/><rect x="76" y="53" width="23" height="1"/><rect x="161" y="53" width="32" height="1"/><rect x="56" y="54" width="1" height="1"/><rect x="76" y="54" width="23" height="1"/><rect x="160" y="54" width="33" height="1"/><rect x="50" y="55" width="30" height="1"/><rect x="87" y="55" width="12" height="1"/><rect x="166" y="55" width="43" height="1"/><rect x="50" y="56" width="27" height="1"/><rect x="188" y="56" width="21" height="1"/><rect x="50" y="57" width="27" height="1"/><rect x="187" y="57" width="22" height="1"/><rect x="50" y="58" width="27" height="1"/><rect x="187" y="58" width="22" height="1"/><rect x="50" y="59" width="27" height="1"/><rect x="187" y="59" width="22" height="1"/><rect x="50" y="60" width="27" height="1"/><rect x="187" y="60" width="22" height="1"/><rect x="50" y="61" width="27" height="1"/><rect x="187" y="61" width="22" height="1"/><rect x="50" y="62" width="27" height="1"/><rect x="187" y="62" width="22" height="1"/><rect x="43" y="63" width="6" height="1"/><rect x="50" y="63" width="27" height="1"/><rect x="188" y="63" width="26" height="1"/><rect x="41" y="64" width="17" height="1"/><rect x="201" y="64" width="17" height="1"/><rect x="39" y="65" width="19" height="1"/><rect x="201" y="65" width="17" height="1"/><rect x="35" y="66" width="23" height="1"/><rect x="201" y="66" width="17" height="1"/><rect x="34" y="67" width="24" height="1"/><rect x="201" y="67" width="17" height="1"/><rect x="34" y="68" width="24" height="1"/><rect x="201" y="68" width="17" height="1"/><rect x="33" y="69" width="25" height="1"/><rect x="201" y="69" width="17" height="1"/><rect x="33" y="70" width="25" height="1"/><rect x="201" y="70" width="18" height="1"/><rect x="32" y="71" width="26" height="1"/><rect x="202" y="71" width="20" height="1"/><rect x="31" y="72" width="11" height="1"/><rect x="209" y="72" width="14" height="1"/><rect x="27" y="73" width="15" height="1"/><rect x="209" y="73" width="14" height="1"/><rect x="25" y="74" width="17" height="1"/><rect x="209" y="74" width="14" height="1"/><rect x="23" y="75" width="19" height="1"/><rect x="209" y="75" width="14" height="1"/><rect x="23" y="76" width="20" height="1"/><rect x="210" y="76" width="13" height="1"/><rect x="20" y="77" width="22" height="1"/><rect x="57" y="77" width="168" height="1"/><rect x="19" y="78" width="19" height="1"/><rect x="57" y="78" width="168" height="1"/><rect x="20" y="79" width="17" height="1"/><rect x="57" y="79" width="168" height="1"/><rect x="20" y="80" width="17" height="1"/><rect x="57" y="80" width="168" height="1"/><rect x="20" y="81" width="17" height="1"/><rect x="57" y="81" width="168" height="1"/><rect x="20" y="82" width="17" height="1"/><rect x="57" y="82" width="168" height="1"/><rect x="22" y="83" width="15" height="1"/><rect x="57" y="83" width="168" height="1"/><rect x="23" y="84" width="14" height="1"/><rect x="57" y="84" width="168" height="1"/><rect x="23" y="85" width="14" height="1"/><rect x="57" y="85" width="168" height="1"/><rect x="57" y="86" width="8" height="1"/>
</g></symbol>
<symbol id="cloud_right" viewBox="0 0 240 90"><g fill="#555">
<rect x="135" y="16" width="41" height="1"/><rect x="135" y="17" width="41" height="1"/><rect x="135" y="18" width="41" height="1"/><rect x="135" y="19" width="41" height="1"/><rect x="135" y="20" width="41" height="1"/><rect x="135" y="21" width="41" height="1"/><rect x="135" y="22" width="41" height="1"/><rect x="135" y="23" width="41" height="1"/><rect x="135" y="24" width="41" height="1"/><rect x="119" y="25" width="22" height="1"/><rect x="153" y="25" width="3" height="1"/><rect x="169" y="25" width="16" height="1"/><rect x="119" y="26" width="21" height="1"/><rect x="169" y="26" width="16" height="1"/><rect x="119" y="27" width="21" height="1"/><rect x="169" y="27" width="16" height="1"/><rect x="118" y="28" width="22" height="1"/><rect x="169" y="28" width="20" height="1"/><rect x="118" y="29" width="22" height="1"/><rect x="169" y="29" width="22" height="1"/><rect x="118" y="30" width="22" height="1"/><rect x="169" y="30" width="22" height="1"/><rect x="117" y="31" width="23" height="1"/><rect x="169" y="31" width="22" height="1"/><rect x="117" y="32" width="24" height="1"/><rect x="169" y="32" width="22" height="1"/><rect x="117" y="33" width="24" height="1"/><rect x="169" y="33" width="22" height="1"/><rect x="112" y="34" width="28" height="1"/><rect x="169" y="34" width="22" height="1"/><rect x="112" y="35" width="10" height="1"/><rect x="182" y="35" width="10" height="1"/><rect x="112" y="36" width="10" height="1"/><rect x="182" y="36" width="10" height="1"/><rect x="112" y="37" width="10" height="1"/><rect x="182" y="37" width="10" height="1"/><rect x="112" y="38" width="10" height="1"/><rect x="183" y="38" width="9" height="1"/><rect x="112" y="39" width="10" height="1"/><rect x="183" y="39" width="9" height="1"/><rect x="112" y="40" width="10" height="1"/><rect x="183" y="40" width="9" height="1"/><rect x="112" y="41" width="10" height="1"/><rect x="183" y="41" width="9" height="1"/><rect x="112" y="42" width="10" height="1"/><rect x="182" y="42" width="10" height="1"/><rect x="95" y="43" width="27" height="1"/><rect x="182" y="43" width="31" height="1"/><rect x="94" y="44" width="26" height="1"/><rect x="182" y="44" width="32" height="1"/><rect x="93" y="45" width="27" height="1"/><rect x="182" y="45" width="32" height="1"/><rect x="93" y="46" width="27" height="1"/><rect x="182" y="46" width="32" height="1"/><rect x="93" y="47" width="28" height="1"/><rect x="182" y="47" width="32" height="1"/><rect x="93" y="48" width="28" height="1"/><rect x="182" y="48" width="32" height="1"/><rect x="93" y="49" width="28" height="1"/><rect x="182" y="49" width="32" height="1"/><rect x="92" y="50" width="29" height="1"/><rect x="182" y="50" width="32" height="1"/><rect x="93" y="51" width="27" height="1"/><rect x="182" y="51" width="32" height="1"/><rect x="72" y="52" width="48" height="1"/><rect x="183" y="52" width="47" height="1"/><rect x="72" y="53" width="26" height="1"/><rect x="209" y="53" width="22" height="1"/><rect x="72" y="54" width="26" height="1"/><rect x="209" y="54" width="22" height="1"/><rect x="72" y="55" width="26" height="1"/><rect x="209" y="55" width="23" height="1"/><rect x="72" y="56" width="26" height="1"/><rect x="209" y="56" width="24" height="1"/><rect x="72" y="57" width="26" height="1"/><rect x="209" y="57" width="24" height="1"/><rect x="72" y="58" width="26" height="1"/><rect x="209" y="58" width="25" height="1"/><rect x="72" y="59" width="26" height="1"/><rect x="209" y="59" width="24" height="1"/><rect x="72" y="60" width="26" height="1"/><rect x="209" y="60" width="26" height="1"/><rect x="54" y="61" width="5" height="1"/><rect x="71" y="61" width="18" height="1"/><rect x="216" y="61" width="24" height="1"/><rect x="54" y="62" width="5" height="1"/><rect x="71" y="62" width="9" height="1"/><rect x="223" y="62" width="17" height="1"/><rect x="54" y="63" width="7" height="1"/><rect x="71" y="63" width="9" height="1"/><rect x="223" y="63" width="17" height="1"/><rect x="54" y="64" width="26" height="1"/><rect x="223" y="64" width="17" height="1"/><rect x="54" y="65" width="26" height="1"/><rect x="223" y="65" width="17" height="1"/><rect x="54" y="66" width="26" height="1"/><rect x="223" y="66" width="17" height="1"/><rect x="54" y="67" width="26" height="1"/><rect x="223" y="67" width="17" height="1"/><rect x="54" y="68" width="26" height="1"/><rect x="224" y="68" width="16" height="1"/><rect x="54" y="69" width="10" height="1"/><rect x="233" y="69" width="7" height="1"/><rect x="54" y="70" width="9" height="1"/><rect x="233" y="70" width="7" height="1"/><rect x="54" y="71" width="9" height="1"/><rect x="233" y="71" width="7" height="1"/><rect x="54" y="72" width="9" height="1"/><rect x="233" y="72" width="7" height="1"/><rect x="54" y="73" width="9" height="1"/><rect x="233" y="73" width="7" height="1"/><rect x="54" y="74" width="9" height="1"/><rect x="233" y="74" width="7" height="1"/><rect x="44" y="75" width="19" height="1"/><rect x="208" y="75" width="9" height="1"/><rect x="233" y="75" width="7" height="1"/><rect x="44" y="76" width="19" height="1"/><rect x="79" y="76" width="161" height="1"/><rect x="44" y="77" width="12" height="1"/><rect x="79" y="77" width="161" height="1"/><rect x="44" y="78" width="12" height="1"/><rect x="79" y="78" width="161" height="1"/><rect x="44" y="79" width="12" height="1"/><rect x="79" y="79" width="161" height="1"/><rect x="44" y="80" width="12" height="1"/><rect x="79" y="80" width="161" height="1"/><rect x="44" y="81" width="12" height="1"/><rect x="79" y="81" width="161" height="1"/><rect x="44" y="82" width="11" height="1"/><rect x="79" y="82" width="161" height="1"/><rect x="44" y="83" width="11" height="1"/><rect x="79" y="83" width="161" height="1"/><rect x="45" y="84" width="10" height="1"/><rect x="79" y="84" width="161" height="1"/>
</g></symbol>
</svg>